<?xml version="1.0" encoding="iso-8859-1"?>
<!-- Generator: Adobe Illustrator 19.0.0, SVG Export Plug-In . SVG Version: 6.00 Build 0)  -->
<svg version="1.1" id="Capa_1" xmlns="http://www.w3.org/2000/svg" xmlns:xlink="http://www.w3.org/1999/xlink" x="0px" y="0px"
	 viewBox="0 0 301.793 301.793" style="enable-background:new 0 0 301.793 301.793;" xml:space="preserve">
<path style="fill:#D12600;" d="M150.617,277.793c108,77.6,163.6-116.4,109.6-173.6c-46.8-49.6-109.6,1.6-109.6,1.6
	s-62.8-51.2-109.6-1.6C-12.983,161.393,42.617,354.993,150.617,277.793z"/>
<path style="fill:#6CAF1E;" d="M150.617,62.593c-47.6,24.8-60.8-27.6-60.8-27.6S137.817,10.193,150.617,62.593z"/>
<g>
	<path style="fill:#3B1B00;" d="M102.217,301.793L102.217,301.793c15.6,0,31.6-5.6,48.4-16.8c16.4,11.2,32.8,16.8,48.4,16.8
		c30.4,0,57.2-22,73.6-60c19.6-44.8,21.6-110.4-8-142c-14.8-15.6-32.4-23.6-52.4-23.6c-23.6,0-44.8,11.2-56.4,18.4
		c-1.2-20-0.4-64.4,30-83.2c2.8-1.6,4-5.6,2-8.4c-1.6-2.8-5.6-4-8.4-2c-16,10-25.2,25.2-30.4,41.2c-10.4-16.4-25.2-19.2-34.4-19.2
		c-14.4,0-26.8,6.4-27.6,6.8c-1.2,0.4-2,1.2-2.4,2.4c-2.8,4.4,3.6,16.4,5.6,20c8.8,15.2,21.2,23.6,36.4,23.6
		c5.2,0,10.8-1.2,16.8-3.2c-0.4,8-0.4,15.2,0,20.8c-12-7.2-32-16.8-54-16.8c-20,0-38,8-52.4,23.6c-29.6,31.6-27.2,96.8-8,142
		C45.017,279.793,71.817,301.793,102.217,301.793z M126.617,62.993c-17.2,0-26-16-29.2-24.4c4-1.6,10.4-3.2,16.8-3.2
		c14,0,23.6,8,28.8,24C137.417,61.793,131.817,62.993,126.617,62.993z M45.417,108.193c12.4-13.2,26.8-19.6,43.6-19.6
		c30.4,0,57.2,21.6,57.6,22l0.4,0.4c0.8,0.8,2,1.2,3.2,1.2c0.4,0,0.8,0,0.8,0c0.4,0,0.4,0,0.4-0.4c0.4,0,0.8-0.4,1.2-0.4
		c0.4,0,0.8-0.4,0.8-0.4h0.4c1.2-0.8,27.6-22,57.6-22c16.8,0,31.2,6.8,43.6,19.6c23.2,24.4,25.6,82.4,5.6,128.8
		c-14.4,33.6-37.2,52.4-62.4,52.4c-14,0-29.2-5.6-44.8-16.8c-1.2-0.8-2.4-1.2-3.6-1.2s-2.4,0.4-3.6,1.2
		c-15.6,11.2-30.8,16.8-44.8,16.8l0,0c-25.2,0-48-19.2-62.4-52.4C19.817,190.593,22.617,132.993,45.417,108.193z"/>
	<path style="fill:#3B1B00;" d="M201.817,116.993c0.8,0,16.4,3.2,28,19.6c12,17.6,14.8,43.6,8.4,77.6c-0.8,3.2,1.6,6.4,4.8,7.2
		c0.4,0,0.8,0,1.2,0c2.8,0,5.6-2,6-4.8c7.2-37.2,4-66.8-10.4-87.2c-14.4-20.8-34.8-24.4-35.6-24.8c-3.2-0.4-6.4,1.6-7.2,5.2
		C196.217,113.393,198.617,116.593,201.817,116.993z"/>
</g>
<g>
</g>
<g>
</g>
<g>
</g>
<g>
</g>
<g>
</g>
<g>
</g>
<g>
</g>
<g>
</g>
<g>
</g>
<g>
</g>
<g>
</g>
<g>
</g>
<g>
</g>
<g>
</g>
<g>
</g>
</svg>
