<?xml version="1.0" encoding="iso-8859-1"?>
<!-- Generator: Adobe Illustrator 19.0.0, SVG Export Plug-In . SVG Version: 6.00 Build 0)  -->
<svg version="1.1" id="Capa_1" xmlns="http://www.w3.org/2000/svg" xmlns:xlink="http://www.w3.org/1999/xlink" x="0px" y="0px"
	 viewBox="0 0 280.815 280.815" style="enable-background:new 0 0 280.815 280.815;" xml:space="preserve">
<g>
	<g>
		<path d="M245.937,92.815c-13.6-14.4-30-22-48.8-22c-22,0-41.6,10.4-52.4,17.2c-1.2-18.4-0.4-60,28-77.2c2.8-1.6,3.6-5.2,2-8
			c-1.6-2.8-5.2-3.6-8-2c-14.8,9.2-23.6,23.6-28.4,38c-9.6-15.2-23.2-18-32-18c-13.6,0-25.2,6-25.6,6.4c-0.8,0.4-1.6,1.2-2.4,2
			c-2,4.8,4,15.6,6,19.2c8,14.4,19.6,21.6,34,21.6c4.8,0,10-1.2,15.6-2.8c-0.4,7.2-0.4,14,0,19.6c-11.2-6.8-29.6-15.6-50.4-15.6
			c-18.8,0-35.2,7.2-48.8,22c-27.6,29.2-25.6,90.4-7.6,132c15.2,35.2,40,55.6,68.4,55.6c14.4,0,29.6-5.2,44.8-15.6
			c15.2,10.4,30.4,15.6,44.8,15.6c28.4,0,53.2-20.4,68.4-56C271.537,182.815,273.937,122.015,245.937,92.815z M117.937,58.815
			c-16,0-24-15.2-27.2-22.8c3.6-1.2,9.6-3.2,15.6-3.2c13.2,0,22,7.2,26.8,22C127.937,57.215,122.737,58.815,117.937,58.815z
			 M243.137,220.815c-13.6,31.2-34.4,48.8-58,48.8c-13.2,0-27.2-5.2-41.6-15.6c-0.8-1.2-2-1.6-3.2-1.6s-2.4,0.4-3.2,1.2
			c-14.4,10.4-28.4,15.6-41.6,15.6c-23.6,0-44.8-18-58-48.8c-18.8-43.2-16.4-96.8,5.2-119.6c11.6-12,25.2-18.4,40.4-18.4
			c28,0,53.2,20,53.6,20.4c0,0,0.4,0,0.4,0.4c0.8,0.4,2,0.8,3.2,0.8c0.4,0,0.8,0,0.8,0h0.4c0.4,0,0.8-0.4,1.2-0.4
			c0.4,0,0.4-0.4,0.8-0.4h0.4c1.2-0.8,25.6-20.4,53.6-20.4c15.6,0,29.2,6,40.4,18.4
			C259.537,124.015,261.937,177.615,243.137,220.815z"/>
	</g>
</g>
<g>
	<g>
		<path d="M223.137,120.015c-13.6-19.6-32.4-22.8-33.2-22.8c-3.2-0.4-6,1.6-6.4,4.8c-0.8,3.2,1.6,6.4,4.4,6.8
			c0.8,0,15.2,2.8,26,18.4c11.2,16.4,14,40.8,7.6,72c-0.8,3.2,1.6,6,4.4,6.8c0.4,0,0.8,0,1.2,0c2.8,0,5.2-2,5.6-4.8
			C239.537,166.415,236.337,139.215,223.137,120.015z"/>
	</g>
</g>
<g>
</g>
<g>
</g>
<g>
</g>
<g>
</g>
<g>
</g>
<g>
</g>
<g>
</g>
<g>
</g>
<g>
</g>
<g>
</g>
<g>
</g>
<g>
</g>
<g>
</g>
<g>
</g>
<g>
</g>
</svg>
